<svg width="265" height="455" viewBox="0 0 265 455" fill="none" xmlns="http://www.w3.org/2000/svg">
<path d="M102.623 377.263C90.5218 377.263 78.4211 377.263 66.3204 377.263C65.0239 377.263 63.7274 377.35 62.4309 377.177C58.0228 376.658 57.6771 376.053 59.8379 372.164C74.013 347.098 88.1881 322.032 102.277 296.966C108.673 285.644 115.069 274.494 121.292 263.085C125.527 255.392 123.712 251.935 114.983 250.897C84.7308 247.354 58.5414 234.907 37.0195 213.472C15.8433 192.468 3.31041 167.057 0.717404 137.064C-1.96204 106.208 5.55768 78.0304 24.1409 53.3968C45.9221 24.6144 74.9638 7.06843 110.834 1.53668C129.676 -1.40206 148.346 0.0673135 166.929 4.30256C170.214 5.08046 170.559 6.54983 169.695 9.48857C165.373 24.2687 161.224 39.1353 156.989 53.9154C155.261 60.1386 155.261 60.1386 148.778 58.6692C127.083 53.6561 106.858 57.5456 88.8796 70.5106C69.6049 84.34 59.4922 103.615 59.8379 127.384C60.443 161.957 89.1389 191.345 123.799 194.024C146.185 195.753 166.238 190.135 182.746 174.836C199.947 158.759 206.343 138.534 202.885 115.283C201.935 108.801 201.935 108.714 208.331 107.072C223.629 103.183 239.015 99.2066 254.4 95.4035C259.759 94.0206 260.623 94.3663 261.574 99.6387C265.118 120.296 265.377 140.781 258.289 160.92C251.547 179.935 241.435 197.222 232.273 214.941C214.64 249.082 194.847 282.1 177.215 316.241C167.188 335.689 156.384 354.704 146.099 373.979C144.802 376.399 143.246 377.09 140.653 377.09C127.948 377.004 115.328 377.004 102.623 377.004C102.623 377.177 102.623 377.177 102.623 377.263Z" fill="#00704E"/>
<path d="M132.358 165.587C109.885 165.587 91.8203 148.387 91.8203 127.038C91.8203 105.862 110.058 88.575 132.444 88.4886C154.485 88.4022 172.809 106.121 172.809 127.384C172.895 148.301 154.485 165.587 132.358 165.587Z" fill="#CEE800"/>
<path d="M0.112262 433.013C0.112262 427.654 0.285129 422.381 0.0258287 417.022C-0.0606048 413.997 0.890164 412.182 3.8289 411.145C12.6451 408.293 21.4613 406.823 30.4504 410.108C32.8706 410.972 35.2043 410.886 37.6244 410.194C43.0697 408.638 48.6015 408.033 54.2197 408.466C64.9374 409.33 70.5556 414.775 70.9013 425.493C71.1606 433.791 70.7285 442.175 70.7285 450.472C70.7285 454.88 67.6169 453.584 65.2831 453.757C62.6037 454.016 61.4801 453.238 61.6529 450.127C61.9122 442.347 61.9122 434.568 61.6529 426.789C61.4801 418.838 59.0599 416.763 51.0216 416.763C50.1573 416.763 49.2929 416.763 48.4286 416.936C39.0938 418.924 39.2667 416.331 40.0446 427.481C40.5632 434.482 40.4767 441.57 40.3039 448.571C40.2174 453.411 37.0194 455.14 32.352 453.497C30.2776 452.719 30.7097 450.991 30.6233 449.521C30.6233 442.347 30.7097 435.174 30.7097 428C30.7097 418.838 27.771 415.812 18.609 416.936C8.40988 418.405 9.61995 415.467 9.53352 426.876C9.44708 434.396 9.61995 441.829 9.44708 449.349C9.44708 451.077 10.4843 454.275 7.19981 453.584C4.69324 453.065 -0.406339 456.004 0.0258287 449.435C0.457996 443.99 0.112262 438.458 0.112262 433.013Z" fill="#00704E"/>
<path d="M131.404 418.752C131.404 411.146 131.577 403.453 131.317 395.847C131.231 391.957 133.565 392.303 136.071 392.217C138.837 392.13 140.479 392.735 140.22 396.02C139.961 399.045 140.393 402.07 140.134 405.095C139.788 408.985 141.603 409.936 144.974 409.158C148.518 408.38 152.148 408.293 155.692 408.898C166.669 410.713 173.065 418.406 172.978 429.729C172.978 433.445 172.546 437.162 171.423 440.792C168.83 449.781 163.039 454.103 153.704 454.276C148.345 454.362 143.072 454.276 138.059 451.856C133.219 449.522 131.145 445.633 131.145 440.36C131.145 433.186 131.145 425.926 131.145 418.752C131.317 418.752 131.317 418.752 131.404 418.752ZM140.134 429.642H140.22C140.22 431.544 140.134 433.359 140.22 435.261C140.479 445.287 145.233 448.658 154.914 446.065C160.878 444.509 162.693 440.187 163.384 434.915C163.73 432.063 163.816 429.124 163.471 426.358C162.606 419.703 157.075 415.899 149.641 416.418C140.652 417.11 140.306 417.455 140.134 426.531C140.047 427.568 140.134 428.605 140.134 429.642Z" fill="#00704E"/>
<path d="M247.054 436.73C242.905 436.643 239.188 436.73 235.472 436.384C231.928 436.038 231.064 437.594 232.447 440.792C234.089 444.595 237.2 446.324 241.263 446.756C246.795 447.275 252.153 446.497 257.426 445.028C258.636 444.682 260.71 443.385 260.97 445.546C261.315 447.707 263.217 450.991 260.019 452.029C249.474 455.572 238.843 456.955 228.903 450.386C221.988 445.805 221.297 438.199 221.124 430.766C221.037 427.827 221.815 424.716 222.766 421.863C225.878 411.837 234.348 407.17 246.449 408.553C256.389 409.676 263.908 417.282 264.686 426.963C265.032 431.63 262.958 434.569 258.29 435.779C254.401 436.989 250.511 436.557 247.054 436.73ZM242.991 428.951C246.017 428.951 249.042 428.951 251.981 428.951C254.141 428.951 255.179 428.346 254.66 425.926C253.536 420.394 249.215 416.677 243.424 416.504C236.682 416.332 232.965 419.184 231.582 425.234C230.977 427.827 231.582 429.037 234.348 428.951C237.2 428.864 240.053 428.951 242.991 428.951Z" fill="#00704E"/>
<path d="M124.49 431.543C124.49 445.978 115.847 454.708 101.412 454.708C86.8915 454.794 77.0381 445.718 77.3838 431.716C77.7296 417.023 85.595 408.639 101.931 408.206C115.587 407.947 124.49 417.455 124.49 431.543ZM100.98 446.669C110.056 446.669 114.982 441.224 114.896 431.284C114.81 421.604 109.883 416.245 101.067 416.245C92.164 416.245 87.3237 421.431 87.3237 430.765C87.4101 441.656 91.7318 446.669 100.98 446.669Z" fill="#00704E"/>
<path d="M251.546 85.8091C248.434 85.982 247.483 83.7347 246.446 81.401C239.186 64.2007 228.209 49.7663 214.206 37.6656C205.736 30.3188 196.142 24.787 186.029 20.206C184.473 19.5146 183.004 18.6502 181.534 17.6995C179.806 16.5758 178.077 15.1065 179.287 12.7728C180.324 10.6119 182.399 9.66115 184.733 10.1798C186.375 10.5255 188.017 11.1305 189.573 11.9084C216.454 24.4413 236.679 44.0617 251.113 69.8189C253.101 73.3627 254.484 77.0793 255.435 81.0552C256.386 84.5126 254.657 85.5498 251.546 85.8091Z" fill="#CEE800"/>
<path d="M225.962 93.6754C222.591 93.8483 221.554 91.3417 220.517 89.008C215.417 77.5124 208.157 67.659 198.908 59.1885C191.821 52.706 183.523 48.2114 175.226 43.6304C172.805 42.2475 169.002 41.3832 170.558 37.1479C171.682 34.0363 174.707 33.777 179.461 36.0243C200.291 45.9641 216.022 61.09 226.913 81.4019C228.209 83.822 229.16 86.415 229.765 89.008C230.629 92.3789 228.814 93.5026 225.962 93.6754Z" fill="#CEE800"/>
<path d="M202.711 422.815C202.711 414.345 202.625 405.874 202.798 397.404C202.798 395.675 201.588 392.736 204.613 392.563C207.638 392.39 210.836 393.168 211.7 396.885C212.219 399.132 212.565 401.379 212.565 403.713C212.651 418.925 212.565 434.224 212.651 449.437C212.651 452.98 211.527 454.19 207.984 454.19C204.44 454.104 202.452 453.672 202.625 449.264C202.884 440.361 202.711 431.631 202.711 422.815Z" fill="#00704E"/>
<path d="M167.794 57.89C168.485 58.1493 170.473 58.7544 172.202 59.6187C186.204 67.052 196.662 78.029 204.182 91.8584C204.96 93.2413 205.392 94.7971 205.824 96.2665C206.516 98.5138 204.96 99.6374 203.404 100.761C201.503 102.058 200.033 101.193 198.91 99.7239C197.613 97.9952 196.403 96.2665 195.366 94.365C188.624 82.1778 179.289 72.843 166.584 66.7927C163.558 65.3233 160.965 63.5946 163.04 59.5323C163.818 58.0629 164.855 57.285 167.794 57.89Z" fill="#CEE800"/>
<path d="M190.265 431.717C190.265 438.027 190.179 444.423 190.265 450.733C190.265 453.326 189.487 454.017 186.981 453.412C182.4 452.375 180.584 449.782 180.757 444.077C180.93 436.99 181.103 429.989 181.189 422.901C181.276 419.617 181.362 416.246 181.189 412.961C181.017 409.504 183.091 409.331 185.598 409.417C188.191 409.504 190.438 409.331 190.351 413.134C190.092 419.271 190.265 425.494 190.265 431.717Z" fill="#00704E"/>
<path d="M185.596 402.848C181.793 403.626 180.496 402.07 180.496 398.008C180.583 394.291 181.879 393.427 185.336 393.514C188.794 393.686 191.214 393.859 191.127 398.613C191.041 402.848 189.053 403.367 185.596 402.848Z" fill="#00704E"/>
</svg>
