<svg width="455" height="465" viewBox="0 0 455 465" fill="none" xmlns="http://www.w3.org/2000/svg">
<path d="M307.551 0C312.951 0.566363 318.351 1.12344 323.751 1.70837C346.567 4.18737 368.383 10.8816 387.4 23.128C427.212 48.7629 451.423 84.4717 454.605 132.845C457.328 174.301 445.695 212.275 428.082 249.014C404.189 298.863 365.949 336.754 323.741 371.181C286.896 401.236 247.262 427.168 204.005 447.232C180.73 458.03 156.51 464.78 130.146 464.408C101.742 464.009 86.7683 444.66 82.0421 426.156C77.6435 408.933 80.6195 392.248 86.2442 376.028C96.3048 347.032 113.712 323.087 139.028 305.233C152.944 295.419 168.667 290.377 185.765 292.782C198.072 294.509 208.086 301.166 213.243 312.744C218.212 323.904 216.219 334.702 207.796 343.755C197.323 354.998 186.439 365.861 175.864 377.012C166.57 386.798 157.099 396.454 148.471 406.807C145.532 410.325 143.941 415.692 143.52 420.371C142.79 428.449 149.884 433.509 158.035 432.274C173.122 429.99 186.355 423.064 199.616 416.286C241.478 394.885 276.208 364.496 308.318 330.858C329.89 308.259 347.812 283.163 362.271 255.476C374.307 232.441 377.246 208.171 374.092 182.963C371.845 164.997 354.541 149.139 336.423 147.533C320.784 146.15 305.866 148.842 291.22 154.617C252.999 169.686 218.792 191.691 184.67 213.955C168.405 224.568 152.205 235.449 135.069 244.539C115.846 254.743 95.3783 262.755 73.3665 264.64C63.2403 265.513 52.7024 265.049 42.6978 263.275C21.1727 259.469 3.99937 242.143 1.042 222.061C-1.00757 208.134 -0.183999 194.179 4.86037 180.883C11.4864 163.428 21.0417 147.57 31.982 132.39C49.7263 107.758 73.4695 89.7546 98.1485 72.8751C111.709 63.5998 126.019 55.3736 140.282 47.166C169.977 30.0915 200.908 15.7653 234.581 8.20762C246.85 5.45937 259.391 3.88098 271.791 1.71766C274.374 1.26271 276.91 0.575648 279.475 0C288.833 0 298.192 0 307.551 0Z" fill="#FF0000"/>
</svg>
