<svg width="70" height="40" viewBox="0 0 70 40" fill="none" xmlns="http://www.w3.org/2000/svg">
<path d="M47.0986 1.02672C50.1394 1.17533 53.1687 1.40396 56.198 1.76976C57.8669 1.96409 59.5359 2.19272 61.2049 2.46707C60.6676 2.61568 60.1189 2.54709 59.5702 2.5128C55.2263 2.28417 50.8938 2.24988 46.5499 2.39848C43.4063 2.5128 40.2855 2.72999 37.1648 3.13009C30.7747 3.94171 24.5103 5.24489 18.646 8.03413C15.5596 9.50877 12.736 11.3492 10.5984 14.0813C8.96368 16.1732 8.07203 18.5395 8.26637 21.2259C8.47213 24.0723 9.82103 26.3929 11.7758 28.3933C14.4164 31.1026 17.6515 32.8859 21.0695 34.3719C25.8135 36.4181 30.7747 37.7442 35.8273 38.7616C36.8104 38.9559 37.7935 39.1502 38.7766 39.3446C38.788 39.3446 38.788 39.3789 38.8223 39.4474C37.8964 39.4703 37.0047 39.3217 36.1131 39.2188C32.3065 38.773 28.5227 38.1786 24.7732 37.3098C20.3607 36.281 16.0511 34.9435 11.9815 32.9316C9.18087 31.5484 6.57453 29.9023 4.414 27.6046C2.77932 25.8784 1.54474 23.9008 1.09892 21.5002C1.07605 21.3631 1.13321 21.1459 0.916016 21.0659C0.916016 20.1856 0.916016 19.3169 0.916016 18.4366C1.25896 17.9337 1.22466 17.3278 1.40756 16.7791C2.3678 13.8755 4.25397 11.6464 6.59739 9.77169C9.88961 7.13106 13.6848 5.45065 17.6629 4.15891C21.2066 3.00434 24.8532 2.24988 28.5456 1.73547C31.0833 1.39253 33.6439 1.14104 36.2046 1.03815C36.6732 1.01529 38.6166 0.923841 38.7194 0.923841C40.0226 0.923841 41.3372 0.958135 42.6404 0.912409C43.2691 0.889547 43.9093 1.03815 44.5266 0.855253C44.538 0.83239 46.4127 0.992429 47.0986 1.02672Z" fill="#323643"/>
<path d="M69.2285 16.9508C68.817 17.5109 68.4283 18.0596 68.0282 18.6083C66.9308 20.1173 65.8219 21.6148 64.7131 23.1237C64.5645 23.3295 64.4388 23.501 64.1301 23.501C59.6147 23.4781 55.0994 23.4781 50.584 23.4667C50.4354 23.4667 50.2753 23.4438 50.1267 23.4209C49.2008 23.238 48.7778 22.7465 48.7664 21.7977C48.755 19.9687 48.7664 18.1397 48.755 16.3106C48.755 15.4419 48.755 15.4419 47.8748 15.4419C46.0686 15.4533 44.251 15.4533 42.4449 15.4647C42.3534 15.4647 42.2505 15.4533 42.1591 15.4762C41.679 15.6019 41.1417 15.6819 41.0274 16.2764C40.9131 16.8365 41.416 17.0422 41.7704 17.2366C42.9021 17.8539 44.0681 18.414 45.2227 18.997C45.76 19.2599 46.2401 19.6029 46.6516 20.0258C47.4861 20.8832 47.3718 21.9806 46.4001 22.6665C45.6113 23.2266 44.7083 23.4438 43.7595 23.4552C41.2103 23.4781 38.6497 23.4781 36.1005 23.4895C31.4708 23.4895 26.8411 23.4781 22.2114 23.501C21.7084 23.501 21.5712 23.3752 21.5827 22.8722C21.6055 20.2202 21.6055 17.5795 21.5827 14.9275C21.5827 14.5274 21.6741 14.4016 22.0857 14.4016C24.4519 14.4245 26.8068 14.3787 29.1731 14.4359C30.6363 14.4702 32.0881 14.6645 33.4713 15.2132C34.8888 15.7734 35.8947 16.7107 36.089 18.2997C36.2948 20.003 35.6547 21.3061 34.1914 22.2092C34.1 22.2664 34.0085 22.335 33.9171 22.3921C33.9742 22.6093 34.1343 22.5179 34.2486 22.5179C36.5006 22.5293 38.7411 22.5293 40.9931 22.5179C41.336 22.5179 41.679 22.4721 42.0105 22.415C42.4677 22.3464 42.9478 22.2321 43.0393 21.6834C43.1422 21.1347 42.7078 20.8946 42.3306 20.7003C41.2217 20.1173 40.1014 19.5571 38.9697 18.997C38.3982 18.7112 37.8838 18.3683 37.4379 17.9225C36.5806 17.0537 36.6835 15.9677 37.678 15.2361C38.5125 14.6188 39.4956 14.4359 40.4787 14.4359C44.3653 14.413 48.252 14.4245 52.1386 14.4016C52.5387 14.4016 52.6302 14.5388 52.6073 14.8932C52.5845 15.3275 52.6302 15.7734 52.5959 16.2078C52.5502 16.7107 52.6873 16.8936 53.236 16.8822C55.2137 16.8479 57.2027 16.8822 59.1803 16.8593C59.5919 16.8593 59.8319 16.9851 60.0606 17.328C61.1122 18.9056 62.1982 20.4717 63.2613 22.0606C63.49 22.4035 63.6157 22.575 63.9472 22.1063C64.9646 20.6546 66.0849 19.2828 67.0794 17.8196C67.6395 17.0308 68.2225 16.6536 69.2285 16.9508ZM27.0697 22.5179C28.1671 22.575 29.2417 22.5179 30.2705 22.0835C32.6711 21.0889 33.1626 18.0482 31.1736 16.4021C30.6706 15.9906 30.0647 15.7505 29.436 15.579C28.2814 15.2704 27.0926 15.3961 25.9152 15.3504C25.4579 15.3275 25.3322 15.4876 25.3436 15.9334C25.3665 17.5567 25.355 19.1685 25.355 20.7917C25.355 21.3404 25.1607 22.072 25.4465 22.3921C25.7551 22.7693 26.5096 22.4493 27.0697 22.5179ZM59.7176 22.5407C59.6948 22.4264 59.6948 22.3578 59.6719 22.3235C58.6316 20.8946 57.58 19.4771 56.5397 18.0482C56.3911 17.8424 56.2082 17.831 56.0024 17.831C55.0308 17.831 54.0591 17.8424 53.0989 17.8196C52.7559 17.8081 52.6302 17.9225 52.6416 18.2654C52.6645 19.3514 52.6531 20.4374 52.6645 21.5119C52.6759 22.2778 52.8702 22.5064 53.6247 22.5293C54.8021 22.5522 55.9796 22.5293 57.157 22.5293C57.9915 22.5407 58.8488 22.5407 59.7176 22.5407Z" fill="#323643"/>
<path d="M57.2772 27.124C57.2772 26.8153 57.2886 26.5181 57.2772 26.2095C57.2658 25.9465 57.3687 25.7636 57.6201 25.8665C57.9859 26.0037 58.3289 25.7979 58.649 25.8322C59.3005 25.9237 59.9293 25.9465 60.5809 25.8208C61.0267 25.7408 61.2782 26.0723 61.2896 26.5181C61.3125 27.0325 61.2896 27.5469 61.301 28.0613C61.301 28.2671 61.2439 28.3814 61.0152 28.37C60.7981 28.37 60.6494 28.3471 60.6609 28.0728C60.6837 27.6727 60.6723 27.2726 60.6723 26.8839C60.6837 26.5524 60.5694 26.2895 60.2036 26.3352C59.895 26.3695 59.5406 26.3809 59.6092 26.8839C59.6549 27.2611 59.6092 27.6384 59.6321 28.0156C59.6435 28.29 59.5406 28.3814 59.2663 28.3814C58.9805 28.3814 58.969 28.2214 58.9805 28.0156C58.9919 27.6155 58.9805 27.2154 58.9919 26.8153C58.9919 26.5181 58.8776 26.3009 58.5804 26.3238C58.2946 26.3466 57.9402 26.3466 57.9516 26.7925C57.9516 27.1354 57.9631 27.4783 57.9402 27.8213C57.9288 28.0613 58.066 28.3814 57.5973 28.37C57.1057 28.3586 57.3229 28.0156 57.3001 27.7984C57.2543 27.5812 57.2772 27.3526 57.2772 27.124Z" fill="#323643"/>
<path d="M43.2598 27.1132C43.2598 26.7932 43.2598 26.4616 43.2598 26.1416C43.2598 25.993 43.3284 25.7986 43.4541 25.8787C44.0257 26.1987 44.6887 25.4557 45.226 26.0616C45.3403 26.1873 45.5003 25.9815 45.6261 25.9244C46.4834 25.5586 46.9978 25.8901 47.0092 26.8046C47.0092 27.1818 47.0207 27.5705 47.0092 27.9477C46.9978 28.0963 47.1236 28.3478 46.8606 28.3592C46.552 28.3707 46.6777 28.0849 46.6663 27.9249C46.6434 27.5019 46.6549 27.0904 46.6549 26.6674C46.6549 26.2673 46.4262 26.0958 46.0719 26.153C45.7404 26.1987 45.3174 26.1759 45.3174 26.7131C45.3288 27.1704 45.3288 27.6276 45.3174 28.0849C45.3174 28.2106 45.3517 28.3707 45.1459 28.3707C44.9516 28.3707 44.9516 28.2221 44.9516 28.0849C44.9516 27.6505 44.9516 27.2047 44.9516 26.7703C44.9516 26.4159 44.8944 26.0958 44.4258 26.153C44.0142 26.1987 43.6256 26.2787 43.6484 26.8389C43.6713 27.2618 43.6599 27.6734 43.6599 28.0963C43.6599 28.2335 43.6599 28.3821 43.4655 28.3707C43.2712 28.3707 43.2826 28.2106 43.2826 28.0849C43.2598 27.7534 43.2598 27.4333 43.2598 27.1132Z" fill="#323643"/>
<path d="M68.4919 27.319C68.3205 27.319 68.2062 27.3075 68.0918 27.319C67.9204 27.3418 67.646 27.1932 67.6117 27.4561C67.5889 27.6848 67.8061 27.8448 68.0575 27.902C68.3205 27.9705 68.5834 27.9363 68.8463 27.8905C69.0178 27.8562 69.1435 27.8448 69.1778 28.062C69.2121 28.2906 69.1207 28.3706 68.9035 28.3821C68.7091 28.3821 68.5262 28.4278 68.3319 28.4278C67.143 28.4392 66.56 27.5019 67.0745 26.4159C67.3831 25.7757 68.4691 25.57 68.9835 26.0729C69.3036 26.3816 69.3836 26.816 69.2464 27.1818C69.1207 27.5247 68.6977 27.2046 68.4919 27.319ZM68.1376 26.9189C68.2519 26.7588 68.6291 27.0903 68.6062 26.6445C68.5948 26.4045 68.4462 26.2558 68.2062 26.2558C67.9089 26.2558 67.6575 26.393 67.646 26.7017C67.6346 27.0446 67.9547 26.7931 68.1376 26.9189Z" fill="#323643"/>
<path d="M64.4877 27.1137C64.4877 27.9596 64.0304 28.4168 63.1959 28.4283C62.3615 28.4283 61.8813 27.9482 61.8928 27.1251C61.9042 26.2792 62.4186 25.7991 63.2645 25.8105C64.0762 25.8219 64.4877 26.2678 64.4877 27.1137ZM62.5444 27.1022C62.5329 27.6167 62.773 27.9253 63.1845 27.9367C63.596 27.9482 63.9047 27.6281 63.8704 27.1365C63.8361 26.7479 63.7789 26.3135 63.2188 26.2906C62.8073 26.2792 62.5444 26.5878 62.5444 27.1022Z" fill="#323643"/>
<path d="M53.6973 26.0158C53.8687 26.0729 53.9487 25.9701 54.0516 25.9358C54.9661 25.57 55.4463 25.89 55.4463 26.8731C55.4463 27.2961 55.4463 27.7076 55.4463 28.1306C55.4463 28.2449 55.4577 28.3706 55.2862 28.3821C55.0919 28.3935 55.0805 28.2678 55.0805 28.1306C55.0805 27.6733 55.0576 27.2161 55.0805 26.7588C55.0919 26.3473 54.9318 26.1072 54.5203 26.153C54.1431 26.1987 53.6744 26.1872 53.7087 26.7931C53.7316 27.2275 53.7087 27.6733 53.7087 28.1077C53.7087 28.2449 53.6973 28.3821 53.5029 28.3821C53.3086 28.3706 53.3086 28.2335 53.3086 28.0963C53.3086 27.1246 53.3086 26.153 53.3086 25.1813C53.3086 25.0441 53.32 24.8955 53.5029 24.8955C53.6744 24.9069 53.6973 25.0441 53.6973 25.1927C53.6973 25.4671 53.6973 25.7414 53.6973 26.0158Z" fill="#323643"/>
<path d="M41.4965 27.159C41.4737 27.9821 41.0164 28.4393 40.2162 28.4165C39.496 28.3936 39.0845 27.9021 39.0959 27.1247C39.1188 26.2902 39.6218 25.7644 40.3877 25.7987C41.1193 25.8216 41.5194 26.3131 41.4965 27.159ZM41.1307 27.1133C41.1307 26.4846 40.7992 26.0959 40.2962 26.0959C39.8047 26.0959 39.4732 26.5189 39.4846 27.1247C39.4846 27.742 39.8161 28.1307 40.3305 28.1307C40.8335 28.1307 41.1307 27.7535 41.1307 27.1133Z" fill="#323643"/>
<path d="M49.9733 27.1131C49.9733 27.3646 49.9733 27.6046 49.9733 27.8561C49.9733 28.2562 49.9733 28.2448 49.5503 28.199C49.436 28.1876 49.3102 28.2905 49.1845 28.3362C48.3271 28.6449 47.8928 28.3477 47.8928 27.456C47.8928 27.0216 47.8928 26.5872 47.8928 26.1414C47.8928 26.0271 47.8813 25.9013 48.0414 25.8785C48.2243 25.8556 48.2586 25.9928 48.2586 26.1414C48.2586 26.5987 48.27 27.0559 48.27 27.5132C48.27 27.9018 48.4186 28.1762 48.8301 28.1076C49.1959 28.0504 49.6646 28.039 49.6303 27.4446C49.6075 27.033 49.6189 26.6101 49.6303 26.1871C49.6303 26.0271 49.6418 25.8556 49.8589 25.8899C50.0418 25.9242 49.9733 26.0957 49.9847 26.21C49.9733 26.5072 49.9733 26.8044 49.9733 27.1131Z" fill="#323643"/>
<path d="M65.1208 27.0903C65.1208 26.7703 65.1208 26.4502 65.1208 26.1187C65.1208 25.9358 65.2237 25.7757 65.3837 25.8672C65.7838 26.0958 66.1268 25.8672 66.504 25.8329C66.6297 25.8215 66.7898 25.81 66.7783 26.0158C66.7783 26.1758 66.7669 26.3359 66.5497 26.3244C65.8295 26.2901 65.6924 26.7017 65.7495 27.2961C65.7724 27.559 65.7381 27.8219 65.7495 28.0963C65.761 28.3363 65.6467 28.3821 65.4409 28.3821C65.2466 28.3821 65.1094 28.3592 65.1094 28.1077C65.1208 27.7648 65.1094 27.4333 65.1208 27.0903C65.1208 27.0903 65.1094 27.0903 65.1208 27.0903Z" fill="#323643"/>
<path d="M38.0213 26.1075C37.7012 26.096 37.3925 26.0617 37.2897 26.3818C37.1868 26.7362 37.5068 26.8048 37.7469 26.9191C37.9412 27.0106 38.1356 27.0791 38.307 27.2049C38.7186 27.5021 38.6614 28.108 38.1927 28.3137C37.8155 28.4738 37.4154 28.4395 37.0153 28.3709C36.9238 28.3594 36.821 28.3252 36.8667 28.188C36.901 28.0851 36.981 28.0622 37.0953 28.0737C37.3011 28.0965 37.5068 28.108 37.7126 28.108C37.9298 28.108 38.147 28.0394 38.2042 27.7993C38.2499 27.5593 38.0784 27.4221 37.8726 27.3421C37.7126 27.2735 37.5526 27.2049 37.404 27.1363C37.061 26.9763 36.8324 26.7362 36.9238 26.3361C37.0039 25.9589 37.3011 25.8446 37.644 25.8103C37.7583 25.7988 37.8841 25.7874 37.987 25.8217C38.1356 25.8674 38.4099 25.7645 38.3871 26.016C38.3642 26.3018 38.1127 26.0617 38.0213 26.1075Z" fill="#323643"/>
<path d="M51.8451 28.4042C51.4679 28.4271 51.0335 28.3013 50.8392 27.8098C50.622 27.2611 50.6105 26.6895 51.0106 26.198C51.365 25.7522 51.8565 25.7636 52.3595 25.8436C52.4738 25.8665 52.6224 25.8779 52.5996 26.0151C52.5653 26.2551 52.3824 26.1522 52.2452 26.1294C51.4564 26.0379 51.0906 26.3466 51.0906 27.1125C51.0906 27.8212 51.3536 28.0613 52.108 28.0956C52.2795 28.107 52.611 27.9012 52.5996 28.2328C52.5996 28.4728 52.2452 28.3356 52.0623 28.3814C52.0394 28.4042 52.0051 28.4042 51.8451 28.4042Z" fill="#323643"/>
</svg>
