<svg width="455" height="455" viewBox="0 0 455 455" fill="none" xmlns="http://www.w3.org/2000/svg">
<path d="M228.044 0.0017147C101.851 -0.480397 0.8489 100.763 0.00520428 226.112C-0.838492 352.787 101.008 454.995 227.08 454.995C352.429 455.115 454.637 353.751 454.998 229.246C455.48 102.209 352.429 0.483827 228.044 0.0017147Z" fill="#00B400"/>
<path d="M165.371 295.414C146.207 307.708 126.319 306.744 106.432 300.476C89.1968 295.052 78.5904 279.866 78.2288 261.063C77.7467 237.199 77.7467 213.214 78.2288 189.349C78.5904 167.534 93.6564 150.78 116.075 147.767C128.73 146.08 141.626 146.321 155.126 145.598C155.126 150.298 155.126 153.914 155.126 158.374C152.956 158.494 150.666 158.615 148.256 158.735C141.265 158.976 134.154 158.494 127.284 159.458C111.736 161.748 102.214 171.029 101.732 186.698C100.888 212.491 100.647 238.525 101.732 264.318C102.455 281.674 114.99 291.919 132.105 292.16C151.51 292.401 162.478 283.482 165.129 265.282C165.732 260.943 166.094 256.483 166.094 252.144C166.214 219.602 166.094 187.059 166.094 154.517C166.094 151.986 166.094 149.455 166.094 146.441C174.049 146.441 181.16 146.441 188.994 146.441C189.115 148.49 189.356 150.419 189.356 152.347C189.356 203.572 189.476 254.796 189.235 306.02C189.115 339.648 167.419 356.401 133.913 354.714C133.913 351.098 133.913 347.362 133.913 343.746C160.79 336.996 169.227 324.22 165.371 295.414Z" fill="white"/>
<path d="M377.14 225.146C377.14 235.15 377.14 245.274 377.14 255.278C376.899 284.084 361.11 301.922 332.424 303.971C321.336 304.815 309.886 303.971 299.038 301.681C278.789 297.463 266.375 281.071 266.134 260.461C265.893 237.199 265.893 213.816 266.134 190.554C266.375 170.185 278.187 154.155 297.953 148.852C314.827 144.272 332.063 143.91 348.937 149.937C364.846 155.601 374.248 167.293 375.814 183.684C377.14 197.425 376.055 211.285 376.055 225.146C376.417 225.146 376.779 225.146 377.14 225.146ZM353.035 225.267C353.276 225.267 353.637 225.267 353.878 225.267C353.878 214.781 354.36 204.415 353.758 193.929C352.914 177.537 348.455 161.025 324.952 159.217C304.703 157.53 290.963 166.69 289.637 186.577C288.07 212.37 288.432 238.284 289.516 264.197C290.24 281.915 302.654 292.039 320.251 292.28C339.415 292.521 350.986 283.482 352.673 265.041C353.999 251.783 353.035 238.525 353.035 225.267Z" fill="white"/>
<path d="M238.775 304.213C231.302 304.213 224.553 304.213 217.08 304.213C216.959 302.525 216.718 300.717 216.718 299.03C216.718 237.44 216.718 175.73 216.598 114.14C216.598 109.56 217.923 107.39 222.383 106.185C227.686 104.739 232.869 102.449 238.775 100.279C238.775 168.378 238.775 235.994 238.775 304.213Z" fill="white"/>
</svg>
