<svg width="102" height="102" viewBox="0 0 102 102" fill="none" xmlns="http://www.w3.org/2000/svg">
<rect width="102" height="102" rx="3" fill="white"/>
<path d="M90.8524 47.7943C89.7674 49.1969 88.6912 50.6083 87.6062 52.0108C86.2213 53.8191 84.8452 55.6275 83.478 57.4446C83.2222 57.7798 82.9134 57.9386 82.5076 57.9386C75.1421 57.9386 67.7765 57.9386 60.4109 57.9386C59.8816 57.9386 59.3612 57.8327 58.8672 57.6475C57.694 57.1976 56.9883 56.192 56.9883 54.9394C56.9883 51.4816 56.9883 48.0325 56.9883 44.5747C56.9883 43.8954 57.2353 43.6484 57.9145 43.6484C59.4405 43.6484 60.9754 43.6484 62.5015 43.6484C63.1366 43.6484 63.3747 43.8778 63.3836 44.5217C63.3924 45.3156 63.3924 46.1095 63.3747 46.9034C63.3659 47.318 63.5247 47.468 63.9481 47.468C67.5471 47.4591 71.1549 47.468 74.7539 47.4503C75.2744 47.4503 75.6272 47.6179 75.9359 48.0502C77.7443 50.6524 79.5791 53.2369 81.405 55.8215C81.8108 56.3949 81.8461 56.3949 82.2607 55.848C84.263 53.2193 86.2742 50.5994 88.2678 47.9708C88.5413 47.6091 88.8676 47.4415 89.3263 47.4591C89.838 47.4768 90.3496 47.4503 90.8612 47.4503C90.8524 47.565 90.8524 47.6797 90.8524 47.7943ZM69.9376 56.439C71.6136 56.439 73.2896 56.439 74.9656 56.439C75.1156 56.439 75.3185 56.5096 75.3979 56.3243C75.4596 56.1744 75.292 56.0597 75.2126 55.9538C73.5719 53.7927 71.9135 51.6403 70.2816 49.4703C70.017 49.1175 69.7083 48.9675 69.276 48.9675C67.5295 48.9764 65.7741 48.9675 64.0275 48.9764C63.4541 48.9764 63.3747 49.0558 63.3747 49.6468C63.3747 51.3228 63.3747 52.9988 63.3747 54.6748C63.3747 56.095 63.7099 56.4302 65.139 56.4478C65.2536 56.4478 65.3771 56.4478 65.4918 56.4478C66.9737 56.439 68.4557 56.439 69.9376 56.439Z" fill="#019841"/>
<path d="M30.2177 50.0792C31.6555 50.0792 33.1022 50.0792 34.54 50.0792C34.7605 50.0792 34.884 50.0615 34.9193 49.7969C35.2721 47.1329 36.8247 45.4216 39.2328 44.4072C40.8912 43.7015 42.6554 43.4722 44.4372 43.4016C46.7043 43.3222 48.9624 43.4281 51.1413 44.1779C53.4259 44.9717 55.1813 46.3478 55.8429 48.7825C56.7338 52.0286 55.6665 55.8834 51.0442 57.4095C48.936 58.1063 46.7572 58.221 44.5607 58.1504C42.823 58.0975 41.1117 57.877 39.471 57.2419C38.1302 56.7214 36.9658 55.9628 36.1013 54.7896C35.9866 54.6308 35.8632 54.4456 35.6426 54.5073C35.3956 54.5779 35.4574 54.8161 35.4662 54.9925C35.5191 55.954 35.0604 56.6067 34.2489 57.0743C33.4109 57.5506 32.5023 57.7888 31.5585 57.8329C27.9771 57.9917 24.3869 58.0799 20.8144 57.6565C18.7238 57.4095 16.6773 56.9155 14.8425 55.8217C13.2812 54.8866 12.1345 53.6164 11.8169 51.7552C11.4376 49.5146 12.2403 47.7151 13.9869 46.3214C15.5041 45.1305 17.286 44.5572 19.1472 44.1779C21.2025 43.7544 23.2755 43.6309 25.3661 43.6398C27.5096 43.6398 29.6619 43.6398 31.8055 43.6398C32.37 43.6398 32.4318 43.7015 32.4406 44.2661C32.4406 44.3366 32.4406 44.416 32.4406 44.4866C32.4406 45.1305 32.3965 45.1658 31.7702 45.1746C29.5649 45.2099 27.3596 45.0776 25.1544 45.2452C23.4078 45.3775 21.723 45.748 20.2322 46.7271C18.0975 48.1209 17.3301 50.5908 18.3533 52.7519C18.9443 53.9957 19.9499 54.8161 21.1761 55.3542C23.3108 56.2892 25.5513 56.545 27.8536 56.2539C28.1447 56.2186 28.427 56.1304 28.6916 55.9893C29.1327 55.7599 29.3797 55.4071 29.3885 54.8955C29.3885 53.9957 29.3885 53.1048 29.3885 52.205C29.3885 51.8345 29.2297 51.6758 28.8592 51.6758C27.8624 51.6846 26.8568 51.6669 25.8601 51.6846C25.4543 51.6934 25.322 51.517 25.3131 51.1289C25.2955 50.0792 25.2867 50.0792 26.3276 50.0792C27.6243 50.0792 28.921 50.0792 30.2177 50.0792ZM49.9151 50.9613C49.9239 49.1353 49.3418 47.4593 48.345 46.3214C46.6513 44.3807 44.102 44.4337 42.4878 46.4272C40.5736 48.7913 40.5824 52.7519 42.5142 55.116C44.2255 57.2066 46.863 57.1889 48.539 55.0719C49.5094 53.8281 49.871 52.3815 49.9151 50.9613Z" fill="#FE0107"/>
</svg>
