<svg width="455" height="455" viewBox="0 0 455 455" fill="none" xmlns="http://www.w3.org/2000/svg">
<path d="M455 0H0V455H455V0Z" fill="white"/>
<path d="M432.874 22.1406H22.1914V432.824H432.874V22.1406Z" fill="#FFCB05"/>
<path d="M419.992 226.288C419.992 270.127 333.815 305.662 227.527 305.662C121.216 305.662 35.0391 270.127 35.0391 226.288C35.0391 182.448 121.216 146.936 227.527 146.936C333.815 146.936 419.992 182.448 419.992 226.288Z" fill="#00678F"/>
<path d="M104.203 265.463L124.109 186.088H155.914V232.316L176.821 186.088H209.649L189.766 265.463H168.859L180.78 214.23L155.914 265.463H139.033V214.23L126.066 265.463H104.203Z" fill="white"/>
<path d="M216.074 266.461L219.055 255.404H241.941L238.938 266.461H216.074Z" fill="#ED1D24"/>
<path d="M267.312 265.463L287.196 186.088H310.082L320.047 228.312L330.967 186.088H351.851L331.968 265.463H310.082L299.14 222.26L288.197 265.463H267.312Z" fill="white"/>
<path d="M216.08 186.088L211.098 206.199H232.005L220.744 249.81H243.607L254.891 206.199H275.776L280.735 186.088H216.08Z" fill="#FFCB05"/>
</svg>
